<svg width="38" height="37" viewBox="0 0 38 37" fill="none" xmlns="http://www.w3.org/2000/svg">
<path d="M0.375 25.8971V0.454836C0.375 0.30719 0.479825 0.1875 0.609134 0.1875H9.81631C9.89151 0.1875 9.96299 0.224864 10.0121 0.289857L37.2558 36.3241C37.4005 36.5155 37.2814 36.8125 37.06 36.8125H23.9017C23.8246 36.8125 23.7595 36.7844 23.7104 36.7165C22.679 35.2917 10.5087 18.4906 9.93474 18.2794C9.33538 18.0587 9.93474 36.8125 9.93474 36.8125C4.65504 36.8125 0.375 31.9255 0.375 25.8971Z" fill="#FF8D2A"/>
<path d="M37.625 31.6609C37.625 32.0867 37.3399 32.0577 37.1789 31.8645C37.3286 32.0441 37.625 31.9431 37.625 31.7093V31.6609Z" fill="#FF8D2A"/>
<path d="M37.625 31.6609C37.625 32.0867 37.3399 32.0577 37.1789 31.8645C37.3286 32.0441 37.625 31.9431 37.625 31.7093V31.6609Z" fill="#FF8D2A"/>
<path d="M37.625 31.6609C37.625 32.0867 37.3399 32.0577 37.1789 31.8645C37.3286 32.0441 37.625 31.9431 37.625 31.7093V31.6609Z" fill="#FF8D2A"/>
<path d="M37.625 31.6609C37.625 32.0867 37.3399 32.0577 37.1789 31.8645C37.3286 32.0441 37.625 31.9431 37.625 31.7093V31.6609Z" fill="#FF8D2A"/>
<path d="M37.625 31.6609C37.625 32.0867 37.3399 32.0577 37.1789 31.8645C37.3286 32.0441 37.625 31.9431 37.625 31.7093V31.6609Z" fill="#FF8D2A"/>
<path d="M37.625 31.6609C37.625 32.0867 37.3399 32.0577 37.1789 31.8645C37.3286 32.0441 37.625 31.9431 37.625 31.7093V31.6609Z" fill="#FF8D2A"/>
<path d="M37.625 31.6609C37.625 32.0867 37.3399 32.0577 37.1789 31.8645C37.3286 32.0441 37.625 31.9431 37.625 31.7093V31.6609Z" fill="#FF8D2A"/>
<path d="M37.625 31.6609C37.625 32.0867 37.3399 32.0577 37.1789 31.8645C37.3286 32.0441 37.625 31.9431 37.625 31.7093V31.6609Z" fill="#FF8D2A"/>
<path d="M37.625 31.6609C37.625 32.0867 37.3399 32.0577 37.1789 31.8645C37.3286 32.0441 37.625 31.9431 37.625 31.7093V31.6609Z" fill="#FF8D2A"/>
<path d="M28.0653 0.345694V20.8089C28.0653 20.8847 28.0908 20.9576 28.1365 21.0125L37.1789 31.8645C37.3399 32.0577 37.625 32.0867 37.625 31.6609V10.9447C37.625 5.00364 33.407 0.1875 28.2038 0.1875C28.1273 0.1875 28.0653 0.258326 28.0653 0.345694Z" fill="#FF8D2A"/>
<path d="M37.625 31.6609C37.625 32.0867 37.3399 32.0577 37.1789 31.8645C37.3286 32.0441 37.625 31.9431 37.625 31.7093V31.6609Z" fill="#FF8D2A"/>
<path d="M37.2558 36.3241C37.4005 36.5155 37.2814 36.8125 37.06 36.8125H37.625L37.2558 36.3241Z" fill="#FF8D2A"/>
<path d="M37.625 31.6609C37.625 32.0867 37.3399 32.0577 37.1789 31.8645C37.3286 32.0441 37.625 31.9431 37.625 31.7093V31.6609Z" fill="#FF8D2A"/>
<path d="M37.625 31.6609C37.625 32.0867 37.3399 32.0577 37.1789 31.8645C37.3286 32.0441 37.625 31.9431 37.625 31.7093V31.6609Z" fill="#FF8D2A"/>
<path fill-rule="evenodd" clip-rule="evenodd" d="M0.375 0.1875V25.8971C0.375 31.9255 4.65504 36.8125 9.93474 36.8125C9.93474 36.8125 9.33538 18.0587 9.93474 18.2794C10.5341 18.5 23.7799 36.8125 23.7799 36.8125H37.06C37.2814 36.8125 37.4005 36.5155 37.2558 36.3241L9.93474 0.1875H0.375Z" fill="#FF8D2A"/>
<path d="M37.625 31.6609C37.625 32.0867 37.3399 32.0577 37.1789 31.8645C37.3286 32.0441 37.625 31.9431 37.625 31.7093V31.6609Z" fill="#FF8D2A"/>
</svg>
