<svg width="48" height="48" viewBox="0 0 48 48" fill="none" xmlns="http://www.w3.org/2000/svg">
<path d="M39.9997 16.2754V31.7237M39.9997 31.7237L44.4135 27.3099M39.9997 31.7237L35.5859 27.3099" stroke="#F4F4F4" stroke-width="1.5" stroke-linecap="round" stroke-linejoin="round"/>
<path d="M16.7946 17.1591C15.8848 17.1591 15.2235 17.3654 14.8109 17.7781C14.4032 18.1857 14.1994 18.7251 14.1994 19.3963H12.2008C12.2008 18.7202 12.35 18.0888 12.6483 17.5021C12.9466 16.9105 13.4313 16.4332 14.1025 16.0703C14.7736 15.7024 15.671 15.5185 16.7946 15.5185C17.7193 15.5185 18.5048 15.6527 19.1511 15.9212C19.8024 16.1896 20.2971 16.5874 20.6351 17.1143C20.9782 17.6413 21.1497 18.2926 21.1497 19.0682C21.1497 19.3565 21.1124 19.6449 21.0378 19.9332C20.9632 20.2216 20.8464 20.4975 20.6873 20.761C20.5282 21.0245 20.3244 21.2656 20.0758 21.4844L18.3755 20.9773C18.6142 20.6641 18.8279 20.3484 19.0169 20.0302C19.2058 19.712 19.3002 19.3814 19.3002 19.0384C19.3002 18.4716 19.0914 18.0167 18.6738 17.6737C18.2562 17.3306 17.6298 17.1591 16.7946 17.1591ZM22.2235 22.5284H11.2761V20.8878H22.2235V22.5284ZM22.2235 25.6307H11.2761V23.9901H22.2235V25.6307ZM16.7349 31.2088C15.3031 31.2088 14.1696 30.9031 13.3343 30.2915C12.4991 29.68 12.0815 28.7926 12.0815 27.6293C12.0815 27.3409 12.1238 27.0501 12.2083 26.7567C12.2978 26.4585 12.427 26.18 12.5961 25.9215C12.7701 25.658 12.9863 25.4318 13.2449 25.2429L15.1539 25.4815C14.7512 25.8395 14.4654 26.1875 14.2963 26.5256C14.1323 26.8587 14.0502 27.2266 14.0502 27.6293C14.0502 28.2109 14.2814 28.6708 14.7438 29.0089C15.2061 29.342 15.8699 29.5085 16.7349 29.5085C17.5403 29.5085 18.204 29.342 18.726 29.0089C19.248 28.6708 19.5091 28.1214 19.5091 27.3608H21.5076C21.5076 28.2358 21.3063 28.9592 20.9036 29.5309C20.5009 30.0977 19.9416 30.5202 19.2257 30.7987C18.5098 31.0721 17.6795 31.2088 16.7349 31.2088Z" fill="#F4F4F4"/>
<path d="M17 36.2144C23.9036 36.2144 29.5 30.6179 29.5 23.7144C29.5 16.8108 23.9036 11.2144 17 11.2144C10.0964 11.2144 4.5 16.8108 4.5 23.7144C4.5 30.6179 10.0964 36.2144 17 36.2144Z" stroke="white"/>
</svg>
