<svg width="48" height="48" viewBox="0 0 48 48" fill="none" xmlns="http://www.w3.org/2000/svg">
<path d="M39.9997 16.2754V31.7237M39.9997 31.7237L44.4135 27.3099M39.9997 31.7237L35.5859 27.3099" stroke="#F4F4F4" stroke-width="1.5" stroke-linecap="round" stroke-linejoin="round"/>
<circle cx="18.5" cy="23.5" r="12" stroke="white"/>
<path d="M21.7291 16.5091C23.5356 16.5091 25 17.7425 25 19.2641V27.2094C25 28.5297 23.7293 29.6 22.1617 29.6L15.3999 21.3607H15.286V29.6H14.8494C13.2757 29.6 12 28.5255 12 27.2V18.9091C12 17.5836 13.2757 16.5091 14.8494 16.5091H14.8838L21.5925 24.7421H21.7291V16.5091Z" fill="white"/>
<path d="M21.7291 16.5091C23.5356 16.5091 25 17.7425 25 19.2641V27.2094C25 28.5297 23.7293 29.6 22.1617 29.6L15.3999 21.3607H15.286V29.6H14.8494C13.2757 29.6 12 28.5255 12 27.2V18.9091C12 17.5836 13.2757 16.5091 14.8494 16.5091H14.8838L21.5925 24.7421H21.7291V16.5091Z" fill="white"/>
<path d="M17.7727 15.2C17.7727 14.5373 18.4106 14 19.1974 14V30.8C19.1974 31.4627 18.5596 32 17.7727 32V15.2Z" fill="white"/>
</svg>
