<svg width="33" height="33" viewBox="0 0 33 33" fill="none" xmlns="http://www.w3.org/2000/svg">
<path d="M9.76172 9.7618H8.42839C7.72114 9.7618 7.04286 10.0428 6.54277 10.5429C6.04267 11.0429 5.76172 11.7212 5.76172 12.4285V24.4285C5.76172 25.1357 6.04267 25.814 6.54277 26.3141C7.04286 26.8142 7.72114 27.0951 8.42839 27.0951H20.4284C21.1356 27.0951 21.8139 26.8142 22.314 26.3141C22.8141 25.814 23.0951 25.1357 23.0951 24.4285V23.0951M21.7617 7.09513L25.7617 11.0951M27.6084 9.20861C28.1335 8.68348 28.4285 7.97125 28.4285 7.22861C28.4285 6.48597 28.1335 5.77374 27.6084 5.24861C27.0833 4.72348 26.371 4.42847 25.6284 4.42847C24.8857 4.42847 24.1735 4.72348 23.6484 5.24861L12.4284 16.4286V20.4286H16.4284L27.6084 9.20861Z" stroke="#E9E9E9" stroke-linecap="round" stroke-linejoin="round"/>
</svg>
