<svg width="16" height="25" viewBox="0 0 16 25" fill="none" xmlns="http://www.w3.org/2000/svg">
<path d="M11.9743 3.48485C14.1976 3.48485 16 5.19797 16 7.3112V18.3464C16 20.1801 14.436 21.6667 12.5067 21.6667L4.18447 10.2231H4.04437V21.6667H3.50698C1.57013 21.6667 0 20.1743 0 18.3333V6.81819C0 4.97724 1.57013 3.48485 3.50699 3.48485H3.54933L11.8062 14.9195H11.9743V3.48485Z" fill="white"/>
<path d="M11.9743 3.48485C14.1976 3.48485 16 5.19797 16 7.3112V18.3464C16 20.1801 14.436 21.6667 12.5067 21.6667L4.18447 10.2231H4.04437V21.6667H3.50698C1.57013 21.6667 0 20.1743 0 18.3333V6.81819C0 4.97724 1.57013 3.48485 3.50699 3.48485H3.54933L11.8062 14.9195H11.9743V3.48485Z" fill="white"/>
<path d="M7.10489 1.66667C7.10489 0.746192 7.88995 0 8.85838 0V23.3333C8.85838 24.2538 8.07332 25 7.10489 25V1.66667Z" fill="white"/>
</svg>
