<svg width="32" height="32" viewBox="0 0 32 32" fill="none" xmlns="http://www.w3.org/2000/svg">
<g clip-path="url(#clip0_1212_6433)">
<path d="M26.6667 0H5.33333C2.38781 0 0 2.38781 0 5.33333V26.6667C0 29.6122 2.38781 32 5.33333 32H26.6667C29.6122 32 32 29.6122 32 26.6667V5.33333C32 2.38781 29.6122 0 26.6667 0Z" fill="#FF8D2A"/>
<path d="M7.10938 19.6441V9.35523C7.10938 9.34296 7.11932 9.33301 7.1316 9.33301H11.6625C11.6685 9.33301 11.6742 9.33541 11.6784 9.33959L24.8496 22.6285C24.8635 22.6425 24.8536 22.6663 24.8338 22.6663H18.2888C18.2829 22.6663 18.2771 22.6639 18.2729 22.6597L11.748 15.9972C11.7201 15.9687 11.6718 15.9885 11.6718 16.0283V22.6663H10.1316C8.46247 22.6663 7.10938 21.3133 7.10938 19.6441Z" fill="white"/>
<path d="M20.3281 16.8735V9.35523C20.3281 9.34296 20.3381 9.33301 20.3503 9.33301H23.3794C24.214 9.33301 24.8905 10.0095 24.8905 10.8441V21.0095C24.8905 21.0288 24.8676 21.0389 24.8533 21.0258L20.3353 16.8898C20.3307 16.8856 20.3281 16.8797 20.3281 16.8735Z" fill="white"/>
</g>
<defs>
<clipPath id="clip0_1212_6433">
<rect width="32" height="32" rx="16" fill="white"/>
</clipPath>
</defs>
</svg>
