<svg width="16" height="16" viewBox="0 0 16 16" fill="none" xmlns="http://www.w3.org/2000/svg">
<g clip-path="url(#clip0_770_4607)">
<path d="M13.3333 0H2.66667C1.19391 0 0 1.19391 0 2.66667V13.3333C0 14.8061 1.19391 16 2.66667 16H13.3333C14.8061 16 16 14.8061 16 13.3333V2.66667C16 1.19391 14.8061 0 13.3333 0Z" fill="#E4832E"/>
<path d="M3.55566 9.8223V4.67786C3.55566 4.67173 3.56064 4.66675 3.56678 4.66675H5.83224C5.83522 4.66675 5.83806 4.66795 5.84015 4.67004L12.4258 11.3145C12.4327 11.3215 12.4278 11.3334 12.4179 11.3334H9.14539C9.14242 11.3334 9.13953 11.3322 9.13744 11.3301L5.875 7.99884C5.86104 7.98462 5.83686 7.99448 5.83686 8.01439V11.3334H5.06677C4.23221 11.3334 3.55566 10.6569 3.55566 9.8223Z" fill="white"/>
<path d="M10.1631 8.43697V4.67786C10.1631 4.67173 10.1681 4.66675 10.1742 4.66675H11.6887C12.106 4.66675 12.4443 5.00501 12.4443 5.4223V10.505C12.4443 10.5146 12.4328 10.5197 12.4257 10.5132L10.1667 8.44515C10.1644 8.44306 10.1631 8.44008 10.1631 8.43697Z" fill="white"/>
</g>
<defs>
<clipPath id="clip0_770_4607">
<rect width="16" height="16" rx="8" fill="white"/>
</clipPath>
</defs>
</svg>
